<?xml version="1.0" encoding="utf-8"?>
<!-- Generator: Adobe Illustrator 16.0.0, SVG Export Plug-In . SVG Version: 6.00 Build 0)  -->
<!DOCTYPE svg PUBLIC "-//W3C//DTD SVG 1.1//EN" "http://www.w3.org/Graphics/SVG/1.1/DTD/svg11.dtd">
<svg version="1.1" id="Layer_3" xmlns="http://www.w3.org/2000/svg" xmlns:xlink="http://www.w3.org/1999/xlink" x="0px" y="0px"
	 width="64px" height="60px" viewBox="0 0 64 60" enable-background="new 0 0 64 60" xml:space="preserve">
<g>
	<path fill="#231F20" d="M25.871,41.653c0,0.483,0.39,0.873,0.872,0.873h10.464c0.481,0,0.872-0.39,0.872-0.873
		c0-0.48-0.391-0.871-0.872-0.871H26.743C26.261,40.782,25.871,41.173,25.871,41.653z"/>
	<path fill="#231F20" d="M42.439,44.271H21.511c-0.482,0-0.873,0.39-0.873,0.871c0,0.482,0.391,0.873,0.873,0.873h20.928
		c0.481,0,0.872-0.391,0.872-0.873C43.312,44.66,42.921,44.271,42.439,44.271z"/>
	<rect x="31.103" y="33.806" fill="#231F20" width="1.744" height="5.233"/>
	<path fill="#231F20" d="M46.128,21.598c0.343-1.115,0.573-2.279,0.644-3.488H46.8v-0.872v-0.872h-0.028h-1.749H18.927h-1.749
		h-0.028v0.872v0.872h0.028c0.006,0.107,0.016,0.211,0.024,0.317c0.059,0.735,0.17,1.455,0.332,2.156
		c0.079,0.342,0.167,0.682,0.269,1.015h-5.885v1.744c0,2.89,2.342,5.232,5.232,5.232V26.83c-1.926,0-3.488-1.561-3.488-3.488h4.804
		c0.11,0.246,0.228,0.487,0.351,0.725c0.336,0.646,0.718,1.265,1.143,1.85c2.693,3.722,7.069,6.146,12.014,6.146
		c6.009,0,11.173-3.581,13.5-8.721h4.812c0,1.927-1.562,3.488-3.487,3.488v1.744c2.89,0,5.23-2.342,5.23-5.232v-1.744H46.128z
		 M31.975,30.318c-4.859,0-9.097-2.652-11.352-6.586c-0.713-1.244-1.228-2.616-1.501-4.073c-0.095-0.507-0.16-1.023-0.195-1.549
		h26.095C44.573,24.927,38.905,30.318,31.975,30.318z"/>
</g>
</svg>
