<?xml version="1.0" encoding="utf-8"?>
<!-- Generator: Adobe Illustrator 16.0.0, SVG Export Plug-In . SVG Version: 6.00 Build 0)  -->
<!DOCTYPE svg PUBLIC "-//W3C//DTD SVG 1.1//EN" "http://www.w3.org/Graphics/SVG/1.1/DTD/svg11.dtd">
<svg version="1.1" id="Layer_2" xmlns="http://www.w3.org/2000/svg" xmlns:xlink="http://www.w3.org/1999/xlink" x="0px" y="0px"
	 width="64px" height="60px" viewBox="0 0 64 60" enable-background="new 0 0 64 60" xml:space="preserve">
<g>
	<polygon fill="#231F20" points="12.018,26.675 12.018,23.037 12.018,21.218 10.198,21.218 10.198,23.037 10.198,26.675 
		10.198,28.495 12.018,28.495 22.932,28.495 24.751,28.495 24.751,26.675 22.932,26.675 	"/>
	<polygon fill="#231F20" points="12.018,26.675 12.018,23.037 12.018,21.218 10.198,21.218 10.198,23.037 10.198,26.675 
		10.198,28.495 12.018,28.495 22.932,28.495 24.751,28.495 24.751,26.675 22.932,26.675 	"/>
	<polygon fill="#231F20" points="22.932,23.037 22.932,26.675 22.932,28.495 24.751,28.495 24.751,26.675 24.751,23.037 
		24.751,21.218 22.932,21.218 12.018,21.218 10.198,21.218 10.198,23.037 12.018,23.037 	"/>
	<path fill="#231F20" d="M52.038,15.761H12.018c0,0-0.051,0-0.137,0.004c-4.09,0.053-5.837,2.431-6.582,4.455c0,0,0,0,0,0.001
		c-0.132,0.313-0.245,0.646-0.334,0.997c-0.105,0.411-0.177,0.848-0.207,1.315c-0.006,0.131-0.011,0.264-0.013,0.399
		c-0.002,0.066-0.002,0.104-0.002,0.104v1.819v1.819v1.819v10.915l0,0c0,0,0,0-0.001,0h-1.52c0,0,0,0,0,0
		c-0.502,0-0.909,0.407-0.909,0.909c0,0.503,0.407,0.91,0.91,0.91h0.61l0,0h4.549c0,3.014,2.443,5.457,5.457,5.457
		c3.014,0,5.458-2.443,5.458-5.457h25.468c0,3.014,2.443,5.457,5.457,5.457s5.458-2.443,5.458-5.457h3.638v-6.367V23.037
		C59.314,15.761,52.038,15.761,52.038,15.761z M13.836,44.866c-2.009,0-3.638-1.629-3.638-3.638c0-0.664,0.181-1.284,0.491-1.819
		c0.629-1.087,1.802-1.819,3.147-1.819c2.01,0,3.638,1.629,3.638,3.639C17.475,43.237,15.846,44.866,13.836,44.866z M33.847,39.409
		h-3.638V23.037h3.638V39.409z M39.305,39.409h-3.639V23.037h3.639V39.409z M50.219,44.866c-2.009,0-3.638-1.629-3.638-3.638
		c0-2.01,1.629-3.639,3.638-3.639c1.346,0,2.519,0.732,3.147,1.819c0.311,0.535,0.491,1.155,0.491,1.819
		C53.857,43.237,52.229,44.866,50.219,44.866z M57.495,30.313v1.819h-2.729c-0.502,0-0.909,0.407-0.909,0.909
		c0,0.503,0.407,0.91,0.909,0.91h0.91h1.818v5.457h-2.131c-0.749-2.119-2.77-3.639-5.146-3.639s-4.396,1.52-5.146,3.639h-3.95
		V21.218h-1.818h-3.639h-1.819h-3.638H28.39v18.191h-9.408c-0.749-2.119-2.769-3.639-5.146-3.639c-2.376,0-4.396,1.52-5.146,3.639
		H6.56v-9.096v-1.819v-1.819v-1.819v-1.819c0-0.69,0.088-1.292,0.241-1.819l0,0c0.001-0.005,0.003-0.01,0.004-0.015
		c0.03-0.101,0.062-0.199,0.097-0.295c0.017-0.046,0.035-0.091,0.052-0.137c0.023-0.059,0.047-0.116,0.072-0.172
		c0.021-0.048,0.042-0.097,0.064-0.144c0.023-0.049,0.048-0.096,0.073-0.143c0.049-0.095,0.101-0.187,0.154-0.274
		c0.015-0.024,0.029-0.048,0.044-0.072c0.039-0.061,0.078-0.12,0.119-0.177c0.008-0.011,0.017-0.022,0.024-0.034
		c0.091-0.125,0.186-0.245,0.284-0.356c1.207-1.362,2.98-1.704,3.793-1.79c0.001,0,0.002,0,0.004,0
		c0.095-0.01,0.176-0.017,0.242-0.021c0.008,0,0.016-0.001,0.023-0.002c0.018-0.001,0.035-0.002,0.05-0.002
		c0.009,0,0.017,0,0.025-0.001c0.02-0.001,0.036-0.001,0.049-0.002c0.007,0,0.015,0,0.021,0c0.005,0,0.01,0,0.013,0
		c0.004,0,0.01,0,0.01,0h3.638H28.39h23.648c0,0,5.457,0,5.457,5.458V30.313z"/>
	<polygon fill="#231F20" points="46.581,26.675 46.581,23.037 46.581,21.218 44.762,21.218 44.762,23.037 44.762,26.675 
		44.762,28.495 46.581,28.495 53.857,28.495 55.677,28.495 55.677,26.675 53.857,26.675 	"/>
	<polygon fill="#231F20" points="53.857,23.037 53.857,26.675 53.857,28.495 55.677,28.495 55.677,26.675 55.677,23.037 
		55.677,21.218 53.857,21.218 46.581,21.218 44.762,21.218 44.762,23.037 46.581,23.037 	"/>
</g>
<circle fill="#231F20" cx="13.837" cy="41.229" r="1.819"/>
<circle fill="#231F20" cx="50.219" cy="41.229" r="1.819"/>
</svg>
