<?xml version="1.0" encoding="utf-8"?>
<!-- Generator: Adobe Illustrator 16.0.0, SVG Export Plug-In . SVG Version: 6.00 Build 0)  -->
<!DOCTYPE svg PUBLIC "-//W3C//DTD SVG 1.1//EN" "http://www.w3.org/Graphics/SVG/1.1/DTD/svg11.dtd">
<svg version="1.1" id="Layer_2" xmlns="http://www.w3.org/2000/svg" xmlns:xlink="http://www.w3.org/1999/xlink" x="0px" y="0px"
	 width="64px" height="60px" viewBox="0 0 64 60" enable-background="new 0 0 64 60" xml:space="preserve">
<g>
	<polygon fill="none" points="21.047,32.762 21.047,38.892 32.269,43.978 43.488,38.892 43.488,32.762 32.269,37.848 	"/>
	<path fill="#231F20" d="M32.269,16.527L8.751,27.188l5.944,2.694l0.961,0.436v-1.934l-0.961-0.446v0.048l-1.763-0.799l19.336-8.766
		l19.336,8.766l-6.39,2.896l-1.727,0.783l-11.22,5.086l-11.221-5.086l-1.726-0.783l-1.939-0.899V31.1l1.939,0.88v8.024l12.947,5.869
		l12.946-5.869v-8.024l10.57-4.792L32.269,16.527z M43.488,38.892l-11.22,5.086l-11.221-5.086v-6.13l11.221,5.086l11.22-5.086
		V38.892z"/>
	<path fill="#231F20" d="M15.656,28.61v9.495c0,0.477,0.386,0.862,0.863,0.862s0.863-0.386,0.863-0.862v-8.712l-0.961-0.436
		L15.656,28.61z"/>
	<polygon fill="#231F20" points="15.656,28.384 15.656,30.318 16.421,30.665 17.382,31.1 17.382,29.185 	"/>
</g>
</svg>
