<?xml version="1.0" encoding="utf-8"?>
<!-- Generator: Adobe Illustrator 16.0.0, SVG Export Plug-In . SVG Version: 6.00 Build 0)  -->
<!DOCTYPE svg PUBLIC "-//W3C//DTD SVG 1.1//EN" "http://www.w3.org/Graphics/SVG/1.1/DTD/svg11.dtd">
<svg version="1.1" id="Layer_2" xmlns="http://www.w3.org/2000/svg" xmlns:xlink="http://www.w3.org/1999/xlink" x="0px" y="0px"
	 width="64px" height="60px" viewBox="0 0 64 60" enable-background="new 0 0 64 60" xml:space="preserve">
<g>
	<path fill="#231F20" d="M50.377,17.54h-5.41v-0.903c0-0.498-0.404-0.9-0.902-0.9s-0.9,0.403-0.9,0.9v0.903h-3.609v-0.903
		c0-0.498-0.403-0.9-0.901-0.9c-0.497,0-0.901,0.403-0.901,0.9v0.903h-1.803h-1.805v-0.903c0-0.498-0.404-0.9-0.901-0.9
		c-0.499,0-0.903,0.403-0.903,0.9v0.903h-1.803h-1.804v-0.903c0-0.498-0.403-0.9-0.902-0.9c-0.498,0-0.902,0.403-0.902,0.9v0.903
		h-3.607v-0.903c0-0.498-0.403-0.9-0.902-0.9c-0.498,0-0.901,0.403-0.901,0.9v0.903h-5.411c-1.804,0-1.804,1.803-1.804,1.803v25.25
		c0,0,0,1.805,1.804,1.805h14.429h5.412h14.428c1.805,0,1.805-1.805,1.805-1.805v-25.25C52.182,19.343,52.182,17.54,50.377,17.54z
		 M50.377,44.594H35.949h-5.412H16.108v-25.25h5.411v0.901c0,0.499,0.403,0.903,0.901,0.903c0.499,0,0.902-0.404,0.902-0.903v-0.901
		h3.607v0.901c0,0.499,0.404,0.903,0.902,0.903c0.499,0,0.902-0.404,0.902-0.903v-0.901h1.804h1.803v0.901
		c0,0.499,0.404,0.903,0.903,0.903c0.497,0,0.901-0.404,0.901-0.903v-0.901h1.805h1.803v0.901c0,0.499,0.404,0.903,0.901,0.903
		c0.498,0,0.901-0.404,0.901-0.903v-0.901h3.609v0.901c0,0.499,0.402,0.903,0.9,0.903s0.902-0.404,0.902-0.903v-0.901h5.41V44.594z"
		/>
	<path fill="#231F20" d="M26.028,27.988l0.638-0.638c0.352-0.353,0.352-0.923,0-1.274c-0.353-0.353-0.924-0.353-1.276,0
		l-0.637,0.637l-0.638-0.637c-0.352-0.353-0.923-0.353-1.275,0c-0.353,0.352-0.353,0.923,0,1.274l0.638,0.638l-0.638,0.638
		c-0.353,0.352-0.353,0.923,0,1.274c0.353,0.353,0.923,0.353,1.275,0l0.638-0.637L25.39,29.9c0.352,0.353,0.923,0.353,1.276,0
		c0.352-0.352,0.352-0.923,0-1.274L26.028,27.988z"/>
	<path fill="#231F20" d="M33.989,27.988l0.639-0.638c0.352-0.353,0.352-0.923,0-1.274c-0.353-0.353-0.924-0.353-1.275,0
		l-0.638,0.637l-0.638-0.637c-0.352-0.353-0.923-0.353-1.276,0c-0.352,0.352-0.352,0.923,0,1.274l0.638,0.638l-0.638,0.638
		c-0.352,0.352-0.352,0.923,0,1.274c0.353,0.353,0.924,0.353,1.276,0l0.638-0.637l0.638,0.637c0.352,0.353,0.923,0.353,1.275,0
		c0.352-0.352,0.352-0.923,0-1.274L33.989,27.988z"/>
	<path fill="#231F20" d="M26.028,35.203l0.638-0.638c0.352-0.353,0.352-0.923,0-1.276c-0.353-0.352-0.924-0.352-1.276,0
		l-0.637,0.639l-0.638-0.639c-0.352-0.352-0.923-0.352-1.275,0c-0.353,0.354-0.353,0.925,0,1.276l0.638,0.638l-0.638,0.638
		c-0.353,0.352-0.353,0.923,0,1.274c0.353,0.354,0.923,0.354,1.275,0l0.638-0.638l0.637,0.638c0.352,0.354,0.923,0.354,1.276,0
		c0.352-0.352,0.352-0.923,0-1.274L26.028,35.203z"/>
	<path fill="#231F20" d="M33.989,35.203l0.639-0.638c0.352-0.353,0.352-0.923,0-1.276c-0.353-0.352-0.924-0.352-1.275,0
		l-0.638,0.639l-0.638-0.639c-0.352-0.352-0.923-0.352-1.276,0c-0.352,0.354-0.352,0.925,0,1.276l0.638,0.638l-0.638,0.638
		c-0.352,0.352-0.352,0.923,0,1.274c0.353,0.354,0.924,0.354,1.276,0l0.638-0.638l0.638,0.638c0.352,0.354,0.923,0.354,1.275,0
		c0.352-0.352,0.352-0.923,0-1.274L33.989,35.203z"/>
	<path fill="#231F20" d="M42.261,27.988l0.637-0.638c0.354-0.353,0.354-0.923,0-1.274c-0.352-0.353-0.922-0.353-1.275,0
		l-0.637,0.637l-0.637-0.637c-0.353-0.353-0.924-0.353-1.275,0c-0.354,0.352-0.354,0.923,0,1.274l0.636,0.638l-0.636,0.638
		c-0.354,0.352-0.354,0.923,0,1.274c0.352,0.353,0.923,0.353,1.275,0l0.637-0.637l0.639,0.637c0.352,0.353,0.922,0.353,1.274,0
		c0.354-0.352,0.354-0.923,0-1.274L42.261,27.988z"/>
</g>
</svg>
