<?xml version="1.0" encoding="utf-8"?>
<!-- Generator: Adobe Illustrator 16.0.0, SVG Export Plug-In . SVG Version: 6.00 Build 0)  -->
<!DOCTYPE svg PUBLIC "-//W3C//DTD SVG 1.1//EN" "http://www.w3.org/Graphics/SVG/1.1/DTD/svg11.dtd">
<svg version="1.1" id="Layer_3" xmlns="http://www.w3.org/2000/svg" xmlns:xlink="http://www.w3.org/1999/xlink" x="0px" y="0px"
	 width="64px" height="60px" viewBox="0 0 64 60" enable-background="new 0 0 64 60" xml:space="preserve">
<path fill="#231F20" d="M38.384,15.756c-4.406,0-8.378,1.85-11.19,4.812c-1.556-0.756-3.304-1.181-5.149-1.181
	c-6.518,0-11.801,5.284-11.801,11.802c0,2.311,0.667,4.465,1.815,6.285v1.884c0,1.815,1.815,1.815,1.815,1.815h1.884
	c1.82,1.148,3.975,1.815,6.286,1.815c1.845,0,3.593-0.425,5.149-1.181c2.812,2.962,6.784,4.812,11.19,4.812
	c2.627,0,5.099-0.658,7.264-1.815h4.536c0,0,1.816,0,1.816-1.815v-4.537c1.157-2.165,1.815-4.637,1.815-7.263
	C53.815,22.664,46.906,15.756,38.384,15.756z M26.583,40.08c-0.199,0.102-0.399,0.198-0.604,0.285
	c-1.208,0.52-2.537,0.808-3.935,0.808c-2.137,0-4.114-0.674-5.738-1.815h-1.525c-0.501,0-0.908-0.406-0.908-0.907v-1.524
	c-1.142-1.624-1.815-3.603-1.815-5.737c0-1.636,0.396-3.178,1.092-4.54c1.653-3.232,5.013-5.447,8.894-5.447
	c1.397,0,2.727,0.289,3.935,0.807c0.567,0.244,1.108,0.538,1.615,0.877c2.674,1.792,4.436,4.841,4.436,8.302
	c0,3.46-1.761,6.509-4.436,8.3C27.271,39.704,26.932,39.901,26.583,40.08z M50.184,37.978v4.103c0,0.502-0.405,0.908-0.907,0.908
	h-4.104c-1.999,1.152-4.316,1.815-6.789,1.815c-0.306,0-0.607-0.014-0.908-0.033c-3.375-0.224-6.415-1.672-8.674-3.91
	c3.048-2.135,5.043-5.669,5.043-9.672c0-4.004-1.995-7.54-5.043-9.672c2.461-2.438,5.845-3.945,9.583-3.945
	c7.215,0,13.115,5.613,13.583,12.708C51.985,30.58,52,30.882,52,31.188C52,33.662,51.337,35.979,50.184,37.978z"/>
<path fill="#231F20" d="M21.136,24.236c0.021-0.5-0.632-0.924-1.401-0.767c-2.715,0.555-4.853,2.695-5.408,5.41
	c-0.159,0.769,0.267,1.422,0.766,1.4l0,0c0.502-0.019,0.898-0.5,1.012-1.034c0.41-2.007,1.99-3.586,3.996-3.996
	C20.636,25.134,21.118,24.738,21.136,24.236L21.136,24.236z"/>
<path fill="#231F20" d="M47.569,28.045c0.499,0.022,0.924-0.631,0.767-1.4c-0.556-2.715-2.695-4.854-5.41-5.409
	c-0.769-0.159-1.421,0.267-1.4,0.766l0,0c0.02,0.502,0.5,0.898,1.035,1.013c2.006,0.411,3.585,1.989,3.996,3.996
	C46.671,27.546,47.066,28.026,47.569,28.045L47.569,28.045z"/>
</svg>
