<?xml version="1.0" encoding="utf-8"?>
<!-- Generator: Adobe Illustrator 16.0.0, SVG Export Plug-In . SVG Version: 6.00 Build 0)  -->
<!DOCTYPE svg PUBLIC "-//W3C//DTD SVG 1.1//EN" "http://www.w3.org/Graphics/SVG/1.1/DTD/svg11.dtd">
<svg version="1.1" id="Layer_1" xmlns="http://www.w3.org/2000/svg" xmlns:xlink="http://www.w3.org/1999/xlink" x="0px" y="0px"
	 width="64px" height="60px" viewBox="0 0 64 60" enable-background="new 0 0 64 60" xml:space="preserve">
<g>
	<path fill="#231F20" d="M32.725,15.594c-8.457,0-15.312,6.855-15.312,15.312c0,8.456,6.856,15.312,15.312,15.312
		c8.456,0,15.312-6.856,15.312-15.312C48.037,22.449,41.181,15.594,32.725,15.594z M32.725,44.417
		c-7.462,0-13.511-6.048-13.511-13.511c0-7.461,6.049-13.511,13.511-13.511s13.511,6.05,13.511,13.511
		C46.235,38.369,40.187,44.417,32.725,44.417z"/>
	<path fill="#231F20" d="M32.725,19.196c-6.467,0-11.71,5.243-11.71,11.71s5.243,11.71,11.71,11.71c6.467,0,11.71-5.243,11.71-11.71
		S39.191,19.196,32.725,19.196z M32.725,40.814c-5.472,0-9.908-4.437-9.908-9.908c0-5.472,4.436-9.908,9.908-9.908
		c5.472,0,9.908,4.436,9.908,9.908C42.633,36.378,38.196,40.814,32.725,40.814z"/>
	<path fill="#231F20" d="M10.206,23.7c0,1.176-0.752,2.174-1.801,2.545v-8.85H6.603v8.85c-1.049-0.371-1.801-1.369-1.801-2.545
		v-6.305H3V23.7c0,2.179,1.547,3.997,3.603,4.414v15.403c0,0.497,0.403,0.9,0.901,0.9s0.901-0.403,0.901-0.9V28.114
		c2.055-0.417,3.603-2.234,3.603-4.414v-6.305h-1.801V23.7z"/>
	<path fill="#231F20" d="M58.846,17.622c-3.108,0.801-5.404,3.622-5.404,6.979s2.296,6.179,5.404,6.979v11.937
		c0,0.497,0.403,0.9,0.901,0.9c0.496,0,0.9-0.403,0.9-0.9V17.395C60.025,17.395,59.422,17.474,58.846,17.622z M58.846,29.697
		c-2.098-0.742-3.604-2.743-3.604-5.096c0-2.354,1.506-4.353,3.604-5.096V29.697z"/>
</g>
</svg>
