<?xml version="1.0" encoding="utf-8"?>
<!-- Generator: Adobe Illustrator 16.0.0, SVG Export Plug-In . SVG Version: 6.00 Build 0)  -->
<!DOCTYPE svg PUBLIC "-//W3C//DTD SVG 1.1//EN" "http://www.w3.org/Graphics/SVG/1.1/DTD/svg11.dtd">
<svg version="1.1" id="Layer_3" xmlns="http://www.w3.org/2000/svg" xmlns:xlink="http://www.w3.org/1999/xlink" x="0px" y="0px"
	 width="64px" height="60px" viewBox="0 0 64 60" enable-background="new 0 0 64 60" xml:space="preserve">
<g>
	<path fill="#191919" d="M49.08,16.509H24.746c-0.479,0-0.868,0.389-0.868,0.869v9.559h-0.087h-9.473
		c-0.479,0-0.869,0.39-0.869,0.869v12.167c0,3.064,2.267,5.598,5.214,6.02v0.063h25.203c3.359,0,6.083-2.724,6.083-6.083V29.545
		V17.378C49.949,16.898,49.561,16.509,49.08,16.509z M19.533,44.319c-2.401,0-4.346-1.946-4.346-4.346V28.676h8.69v11.298
		C23.878,42.373,21.932,44.319,19.533,44.319z M48.211,39.104v0.869c0,2.399-1.946,4.346-4.345,4.346H23.788
		c0.932-0.914,1.571-2.123,1.765-3.477h0.062v-0.869V18.247h22.596V39.104z"/>
	<path fill="#191919" d="M36.912,21.723L36.912,21.723c0.48,0,0.868-0.387,0.871-0.865c0-0.001,0-0.002,0-0.003
		c0-0.001,0-0.003,0-0.004c-0.003-0.478-0.391-0.865-0.869-0.866h-0.001c-0.479,0-0.866,0.387-0.868,0.866
		c0,0-0.001,0.002-0.001,0.004c0,0,0.001,0.001,0.001,0.003C36.047,21.336,36.434,21.723,36.912,21.723z"/>
	<path fill="#191919" d="M28.223,21.723h5.215c0.48,0,0.869-0.389,0.869-0.868c0-0.48-0.389-0.87-0.869-0.87h-5.215
		c-0.479,0-0.869,0.389-0.869,0.87C27.354,21.334,27.743,21.723,28.223,21.723z"/>
	<path fill="#191919" d="M40.39,21.723h5.214c0.48,0,0.869-0.389,0.869-0.868c0-0.48-0.389-0.87-0.869-0.87H40.39
		c-0.48,0-0.869,0.389-0.869,0.87C39.521,21.334,39.909,21.723,40.39,21.723z"/>
	<path fill="#191919" d="M40.39,25.2h5.214c0.48,0,0.869-0.389,0.869-0.869s-0.389-0.869-0.869-0.869H40.39
		c-0.48,0-0.869,0.389-0.869,0.869S39.909,25.2,40.39,25.2z"/>
	<path fill="#191919" d="M40.39,28.676h5.214c0.48,0,0.869-0.39,0.869-0.869s-0.389-0.869-0.869-0.869H40.39
		c-0.48,0-0.869,0.39-0.869,0.869S39.909,28.676,40.39,28.676z"/>
	<path fill="#191919" d="M40.39,32.152h5.214c0.48,0,0.869-0.389,0.869-0.869s-0.389-0.87-0.869-0.87H40.39
		c-0.48,0-0.869,0.389-0.869,0.87S39.909,32.152,40.39,32.152z"/>
	<path fill="#191919" d="M28.223,32.152h6.952c0.48,0,0.869-0.389,0.869-0.869v-6.953c0-0.48-0.389-0.869-0.869-0.869h-6.952
		c-0.479,0-0.869,0.389-0.869,0.869v6.953C27.354,31.764,27.743,32.152,28.223,32.152z M29.092,25.2h5.215v5.214h-5.215V25.2z"/>
	<path fill="#191919" d="M28.223,39.104h17.381c0.48,0,0.869-0.39,0.869-0.869c0-0.48-0.389-0.869-0.869-0.869H28.223
		c-0.479,0-0.869,0.389-0.869,0.869C27.354,38.715,27.743,39.104,28.223,39.104z"/>
	<path fill="#191919" d="M28.223,42.58h13.904c0.48,0,0.87-0.389,0.87-0.869c0-0.479-0.39-0.868-0.87-0.868H28.223
		c-0.479,0-0.869,0.389-0.869,0.868C27.354,42.191,27.743,42.58,28.223,42.58z"/>
	<path fill="#191919" d="M28.223,35.629h17.381c0.48,0,0.869-0.39,0.869-0.87c0-0.479-0.389-0.869-0.869-0.869H28.223
		c-0.479,0-0.869,0.39-0.869,0.869C27.354,35.239,27.743,35.629,28.223,35.629z"/>
</g>
</svg>
