<?xml version="1.0" encoding="utf-8"?>
<!-- Generator: Adobe Illustrator 16.0.0, SVG Export Plug-In . SVG Version: 6.00 Build 0)  -->
<!DOCTYPE svg PUBLIC "-//W3C//DTD SVG 1.1//EN" "http://www.w3.org/Graphics/SVG/1.1/DTD/svg11.dtd">
<svg version="1.1" xmlns="http://www.w3.org/2000/svg" xmlns:xlink="http://www.w3.org/1999/xlink" x="0px" y="0px" width="64px"
	 height="60px" viewBox="0 0 64 60" enable-background="new 0 0 64 60" xml:space="preserve">
<g id="Layer_3">
</g>
<g id="Layer_2">
	<g>
		<path fill="none" d="M15.256,44.611h7.15V32.1h-7.15V44.611z M17.044,34.78c0-0.493,0.4-0.894,0.894-0.894s0.894,0.4,0.894,0.894
			v1.788c0,0.493-0.4,0.894-0.894,0.894s-0.894-0.4-0.894-0.894V34.78z M17.044,40.143c0-0.493,0.4-0.894,0.894-0.894
			s0.894,0.4,0.894,0.894v1.787c0,0.494-0.4,0.895-0.894,0.895s-0.894-0.4-0.894-0.895V40.143z"/>
		<path fill="none" d="M24.194,44.611h3.575V33.887h7.15v10.725h3.574V17.799H24.194V44.611z M33.131,20.48
			c0-0.494,0.4-0.894,0.895-0.894c0.493,0,0.894,0.4,0.894,0.894v1.788c0,0.494-0.4,0.894-0.894,0.894
			c-0.494,0-0.895-0.4-0.895-0.894V20.48z M33.131,27.631c0-0.495,0.4-0.894,0.895-0.894c0.493,0,0.894,0.399,0.894,0.894v1.787
			c0,0.494-0.4,0.894-0.894,0.894c-0.494,0-0.895-0.4-0.895-0.894V27.631z M25.981,20.48c0-0.494,0.4-0.894,0.894-0.894
			c0.493,0,0.894,0.4,0.894,0.894v1.788c0,0.494-0.4,0.894-0.894,0.894c-0.494,0-0.894-0.4-0.894-0.894V20.48z M25.981,27.631
			c0-0.495,0.4-0.894,0.894-0.894c0.493,0,0.894,0.399,0.894,0.894v1.787c0,0.494-0.4,0.894-0.894,0.894
			c-0.494,0-0.894-0.4-0.894-0.894V27.631z"/>
		<path fill="none" d="M40.281,44.611h7.148V24.949h-7.148V44.611z M42.068,27.631c0-0.495,0.399-0.894,0.894-0.894
			c0.493,0,0.894,0.399,0.894,0.894v1.787c0,0.494-0.4,0.894-0.894,0.894c-0.494,0-0.894-0.4-0.894-0.894V27.631z M42.068,32.993
			c0-0.493,0.399-0.894,0.894-0.894c0.493,0,0.894,0.4,0.894,0.894v1.787c0,0.494-0.4,0.895-0.894,0.895
			c-0.494,0-0.894-0.4-0.894-0.895V32.993z M42.068,38.355c0-0.494,0.399-0.894,0.894-0.894c0.493,0,0.894,0.399,0.894,0.894v1.787
			c0,0.494-0.4,0.894-0.894,0.894c-0.494,0-0.894-0.399-0.894-0.894V38.355z"/>
		<path fill="#231F20" d="M45.643,23.162v-0.894c0,0.494-0.399,0.894-0.894,0.894c-0.493,0-0.894-0.4-0.894-0.894v0.894h-3.574
			v-7.149H24.194c-1.788,0-1.788,1.787-1.788,1.787v12.513h-7.15c-1.787,0-1.787,1.788-1.787,1.788v12.512v1.787h1.787h7.15h1.788
			h5.362v-1.787v-8.937h3.575v8.937v1.787h16.087V23.162H45.643z M22.406,44.611h-7.15V32.1h7.15V44.611z M38.493,44.611h-3.574
			V33.887h-7.15v10.725h-3.575V17.799h14.299V44.611z M47.43,44.611h-7.148V24.949h7.148V44.611z"/>
		<path fill="#231F20" d="M42.962,30.312c0.493,0,0.894-0.4,0.894-0.894v-1.787c0-0.495-0.4-0.894-0.894-0.894
			c-0.494,0-0.894,0.399-0.894,0.894v1.787C42.068,29.912,42.468,30.312,42.962,30.312z"/>
		<path fill="#231F20" d="M34.025,30.312c0.493,0,0.894-0.4,0.894-0.894v-1.787c0-0.495-0.4-0.894-0.894-0.894
			c-0.494,0-0.895,0.399-0.895,0.894v1.787C33.131,29.912,33.531,30.312,34.025,30.312z"/>
		<path fill="#231F20" d="M34.025,23.162c0.493,0,0.894-0.4,0.894-0.894V20.48c0-0.494-0.4-0.894-0.894-0.894
			c-0.494,0-0.895,0.4-0.895,0.894v1.788C33.131,22.762,33.531,23.162,34.025,23.162z"/>
		<path fill="#231F20" d="M26.875,30.312c0.493,0,0.894-0.4,0.894-0.894v-1.787c0-0.495-0.4-0.894-0.894-0.894
			c-0.494,0-0.894,0.399-0.894,0.894v1.787C25.981,29.912,26.381,30.312,26.875,30.312z"/>
		<path fill="#231F20" d="M26.875,23.162c0.493,0,0.894-0.4,0.894-0.894V20.48c0-0.494-0.4-0.894-0.894-0.894
			c-0.494,0-0.894,0.4-0.894,0.894v1.788C25.981,22.762,26.381,23.162,26.875,23.162z"/>
		<path fill="#231F20" d="M42.962,35.675c0.493,0,0.894-0.4,0.894-0.895v-1.787c0-0.493-0.4-0.894-0.894-0.894
			c-0.494,0-0.894,0.4-0.894,0.894v1.787C42.068,35.274,42.468,35.675,42.962,35.675z"/>
		<path fill="#231F20" d="M17.938,37.462c0.494,0,0.894-0.4,0.894-0.894V34.78c0-0.493-0.4-0.894-0.894-0.894
			s-0.894,0.4-0.894,0.894v1.788C17.044,37.062,17.444,37.462,17.938,37.462z"/>
		<path fill="#231F20" d="M17.938,42.824c0.494,0,0.894-0.4,0.894-0.895v-1.787c0-0.493-0.4-0.894-0.894-0.894
			s-0.894,0.4-0.894,0.894v1.787C17.044,42.424,17.444,42.824,17.938,42.824z"/>
		<path fill="#231F20" d="M42.962,41.036c0.493,0,0.894-0.399,0.894-0.894v-1.787c0-0.494-0.4-0.894-0.894-0.894
			c-0.494,0-0.894,0.399-0.894,0.894v1.787C42.068,40.637,42.468,41.036,42.962,41.036z"/>
		<path fill="#231F20" d="M44.749,23.162c0.494,0,0.894-0.4,0.894-0.894v-5.362c0-0.494-0.399-0.894-0.894-0.894
			c-0.493,0-0.894,0.4-0.894,0.894v5.362C43.855,22.762,44.256,23.162,44.749,23.162z"/>
	</g>
</g>
</svg>
