<?xml version="1.0" encoding="utf-8"?>
<!-- Generator: Adobe Illustrator 16.0.0, SVG Export Plug-In . SVG Version: 6.00 Build 0)  -->
<!DOCTYPE svg PUBLIC "-//W3C//DTD SVG 1.1//EN" "http://www.w3.org/Graphics/SVG/1.1/DTD/svg11.dtd">
<svg version="1.1" id="Layer_2" xmlns="http://www.w3.org/2000/svg" xmlns:xlink="http://www.w3.org/1999/xlink" x="0px" y="0px"
	 width="64px" height="60px" viewBox="0 0 64 60" enable-background="new 0 0 64 60" xml:space="preserve">
<g>
	<path fill="#231F20" d="M45.85,28.776c-1.258,0-2.455,0.265-3.538,0.741l-7.733-7.733c-0.014-0.014-0.027-0.025-0.041-0.038
		c-0.583-0.604-1.399-0.981-2.305-0.981H21.017c-1.77,0-3.204,1.434-3.204,3.204v0.08v0.001v5.06
		c-3.698,1.046-6.409,4.444-6.409,8.477c0,4.866,3.945,8.812,8.812,8.812c4.867,0,8.812-3.945,8.812-8.812
		c0-0.318-0.018-0.634-0.051-0.944l2.317-2.317c1.251-1.251,1.251-3.279,0-4.53c-0.015-0.014-0.028-0.025-0.044-0.039
		c-0.013-0.014-0.023-0.029-0.037-0.043l-2.541-2.54h2.233l6.875,6.874c-0.476,1.083-0.742,2.279-0.742,3.539
		c0,4.866,3.945,8.812,8.812,8.812c4.867,0,8.812-3.945,8.812-8.812S50.717,28.776,45.85,28.776z M20.216,44.797
		c-3.981,0-7.209-3.228-7.209-7.21c0-3.139,2.006-5.807,4.807-6.798c0.51-0.181,1.046-0.304,1.602-0.366
		c0.263-0.029,0.53-0.045,0.801-0.045c0.843,0,1.652,0.146,2.403,0.411c0.385,0.136,0.755,0.304,1.107,0.5
		c0.169,0.096,0.335,0.195,0.495,0.305c0.147,0.098,0.291,0.203,0.43,0.312c0.422,0.33,0.808,0.705,1.147,1.119
		c0.268,0.327,0.507,0.68,0.715,1.052c0.346,0.619,0.603,1.294,0.755,2.01c0.103,0.483,0.158,0.985,0.158,1.501
		c0,0.215-0.011,0.427-0.03,0.637C27.074,41.906,23.983,44.797,20.216,44.797z M28.2,28.967l1.88,1.88
		c0.014,0.014,0.025,0.029,0.037,0.043c0.015,0.012,0.029,0.024,0.043,0.038c0.627,0.626,0.627,1.639,0,2.267l-1.591,1.591
		c-0.198-0.596-0.458-1.161-0.773-1.691c-0.253-0.427-0.542-0.829-0.862-1.206c-0.346-0.407-0.728-0.784-1.142-1.124
		c-0.34-0.277-0.702-0.53-1.083-0.756l-0.488-0.488v-2.346h2.186L28.2,28.967z M24.221,25.57c-1.602,0-1.602,1.604-1.602,1.604
		v0.744v1.192c-0.435-0.123-0.882-0.213-1.342-0.268c-0.348-0.042-0.702-0.066-1.062-0.066c-0.27,0-0.537,0.014-0.801,0.037V24.05
		c0-0.014,0.002-0.028,0.002-0.042s-0.002-0.026-0.002-0.04c0-0.884,0.717-1.602,1.602-1.602h8.572
		c-0.604,0.976-0.636,2.203-0.095,3.204H24.221z M31.18,25.183c-0.625-0.625-0.625-1.64,0-2.266
		c0.613-0.613,1.597-0.624,2.225-0.037c0.014,0.013,0.028,0.023,0.041,0.037l7.412,7.412c-0.888,0.61-1.656,1.379-2.267,2.267
		L31.18,25.183z M45.85,44.797c-3.98,0-7.209-3.228-7.209-7.21c0-0.92,0.174-1.797,0.488-2.605c0.197-0.512,0.451-0.995,0.755-1.441
		c0.513-0.755,1.165-1.406,1.919-1.919c0.447-0.304,0.932-0.558,1.441-0.755c0.809-0.315,1.688-0.488,2.605-0.488
		c3.982,0,7.21,3.228,7.21,7.209C53.06,41.569,49.832,44.797,45.85,44.797z"/>
	<path fill="#231F20" d="M43.447,25.57c2.654,0,4.806-2.152,4.806-4.805c0-2.655-2.151-4.807-4.806-4.807
		c-2.655,0-4.807,2.151-4.807,4.807C38.641,23.418,40.792,25.57,43.447,25.57z M43.447,17.561c1.77,0,3.204,1.435,3.204,3.205
		c0,1.769-1.435,3.204-3.204,3.204s-3.205-1.435-3.205-3.204C40.242,18.995,41.678,17.561,43.447,17.561z"/>
</g>
</svg>
