<?xml version="1.0" encoding="utf-8"?>
<!-- Generator: Adobe Illustrator 16.0.0, SVG Export Plug-In . SVG Version: 6.00 Build 0)  -->
<!DOCTYPE svg PUBLIC "-//W3C//DTD SVG 1.1//EN" "http://www.w3.org/Graphics/SVG/1.1/DTD/svg11.dtd">
<svg version="1.1" id="Layer_3" xmlns="http://www.w3.org/2000/svg" xmlns:xlink="http://www.w3.org/1999/xlink" x="0px" y="0px"
	 width="64px" height="60px" viewBox="0 0 64 60" enable-background="new 0 0 64 60" xml:space="preserve">
<path fill="#231F20" d="M41.795,24.91c-0.064-0.375-0.148-0.746-0.251-1.107c-1.273-4.503-5.411-7.806-10.323-7.806
	c-5.926,0-10.73,4.804-10.73,10.73c0,1.766,0.439,3.52,1.276,5.075c0.672,1.248,1.651,2.223,0.652,3.585
	c-0.814,1.11-2.497,1.956-3.715,2.515v3.592c1.935-1.351,4.268-2.167,6.789-2.238c0.154,0.005,0.309,0.012,0.462,0.022
	c0.479,0.03,0.953,0.083,1.419,0.156c1.167,0.185,2.279,0.501,3.319,0.929c0.456,0.188,0.901,0.396,1.327,0.625
	c0.279,0.15,0.552,0.313,0.817,0.48c0.226,0.191,0.433,0.396,0.62,0.618l-0.469,0.911c-0.56,1.091-0.81,2.257-0.787,3.401h1.786
	c-0.02-0.81,0.143-1.635,0.511-2.415c0.025-0.056,0.053-0.111,0.081-0.169l3.977-7.735c0.199,0.094,1.677,1.31,1.677,1.31
	l7.084-6.887L41.795,24.91z M22.444,28.437c-0.106-0.554-0.165-1.125-0.165-1.71c0-4.938,4.004-8.942,8.941-8.942
	c2.631,0,4.995,1.136,6.631,2.944c-1.455-0.737-3.1-1.156-4.842-1.156C27.721,19.573,23.328,23.402,22.444,28.437z M34.383,40.285
	c-1.908-1.431-3.995-2.336-6.546-2.689c-0.647-0.09-1.308-0.139-1.981-0.139c-0.118,0-0.236,0.007-0.354,0.008
	c-0.162-0.005-0.324-0.007-0.488-0.007c-0.017,0-0.034-0.001-0.053-0.001c-0.814,0-1.614,0.058-2.395,0.168
	c0.54-0.427,1.041-0.892,1.508-1.381c0.271-0.285,0.534-0.577,0.779-0.881c0.148-0.188,0.289-0.376,0.426-0.565
	c0.213-0.292,0.413-0.593,0.581-0.916c-1.255-0.778-1.793-2.137-1.793-3.579c0-4.938,4.003-8.94,8.942-8.94
	c2.474,0,4.712,1.005,6.33,2.63l-6.66,4.129c-0.455-0.832-1.338-1.396-2.354-1.396c-1.481,0-2.682,1.2-2.682,2.683
	c0,1.481,1.2,2.683,2.682,2.683c0.729,0,1.389-0.292,1.871-0.765l4.881,3.712L34.383,40.285z M31.221,29.41
	c0,0.352-0.205,0.652-0.5,0.798c-0.119,0.059-0.252,0.095-0.395,0.095c-0.493,0-0.894-0.399-0.894-0.893s0.4-0.895,0.894-0.895
	c0.374,0,0.693,0.229,0.827,0.553C31.197,29.174,31.221,29.289,31.221,29.41z M40.118,35.095l-6.876-5.218l6.788-4.208l2.026,2.051
	h-2.151c-0.494,0-0.895,0.401-0.895,0.895s0.4,0.893,0.895,0.893h3.916l0.785,0.794h-5.894c-0.494,0-0.894,0.401-0.894,0.896
	s0.399,0.895,0.894,0.895h4.447L40.118,35.095z"/>
</svg>
