<?xml version="1.0" encoding="utf-8"?>
<!-- Generator: Adobe Illustrator 16.0.0, SVG Export Plug-In . SVG Version: 6.00 Build 0)  -->
<!DOCTYPE svg PUBLIC "-//W3C//DTD SVG 1.1//EN" "http://www.w3.org/Graphics/SVG/1.1/DTD/svg11.dtd">
<svg version="1.1" id="Layer_3" xmlns="http://www.w3.org/2000/svg" xmlns:xlink="http://www.w3.org/1999/xlink" x="0px" y="0px"
	 width="64px" height="60px" viewBox="0 0 64 60" enable-background="new 0 0 64 60" xml:space="preserve">
<g>
	<path fill="#231F20" d="M49.44,30.553V17.445c0-1.523-1.524-1.523-1.524-1.523H14.39c-1.524,0-1.524,1.523-1.524,1.523v22.859
		c0,0,0,1.523,1.524,1.523h23.775c1.388,2.713,4.208,4.571,7.464,4.571c4.631,0,8.382-3.753,8.382-8.381
		C54.011,34.762,52.152,31.941,49.44,30.553z M37.566,40.304H14.39V17.445h33.526v12.51c-0.728-0.206-1.494-0.318-2.287-0.318
		c-1.816,0-3.498,0.58-4.87,1.564c-1.495,1.069-2.624,2.617-3.161,4.422c-0.226,0.759-0.35,1.562-0.35,2.396
		C37.248,38.811,37.36,39.577,37.566,40.304z M45.629,44.874c-3.786,0-6.856-3.068-6.856-6.856c0-0.381,0.033-0.755,0.092-1.12
		c0.089-0.535,0.236-1.049,0.441-1.533c0.398-0.951,1.006-1.792,1.765-2.467c0.396-0.354,0.832-0.661,1.303-0.915
		c0.969-0.524,2.077-0.822,3.256-0.822c3.788,0,6.858,3.07,6.858,6.857C52.487,41.806,49.417,44.874,45.629,44.874z"/>
	<path fill="#231F20" d="M48.678,37.255h-2.287v-3.81c0-0.421-0.339-0.761-0.762-0.761c-0.42,0-0.761,0.34-0.761,0.761v4.572
		c0,0.42,0.341,0.762,0.761,0.762h3.049c0.421,0,0.763-0.342,0.763-0.762C49.44,37.597,49.099,37.255,48.678,37.255z"/>
	<circle fill="#231F20" cx="17.438" cy="20.493" r="1.524"/>
	<circle fill="#231F20" cx="44.868" cy="20.493" r="1.524"/>
	<path fill="#231F20" d="M22.009,23.54c-1.683,0-3.047,1.365-3.047,3.049c0,1.682,1.364,3.047,3.047,3.047
		c1.684,0,3.048-1.365,3.048-3.047C25.058,24.905,23.693,23.54,22.009,23.54z M22.009,28.113c-0.841,0-1.523-0.683-1.523-1.524
		c0-0.843,0.682-1.525,1.523-1.525c0.842,0,1.524,0.683,1.524,1.525C23.533,27.431,22.851,28.113,22.009,28.113z"/>
	<path fill="#231F20" d="M22.009,31.16c-1.683,0-3.047,1.365-3.047,3.048s1.364,3.047,3.047,3.047c1.684,0,3.048-1.364,3.048-3.047
		S23.693,31.16,22.009,31.16z M22.009,35.731c-0.841,0-1.523-0.682-1.523-1.523s0.682-1.523,1.523-1.523
		c0.842,0,1.524,0.682,1.524,1.523S22.851,35.731,22.009,35.731z"/>
	<path fill="#231F20" d="M31.152,23.54c-1.683,0-3.047,1.365-3.047,3.049c0,1.682,1.364,3.047,3.047,3.047s3.048-1.365,3.048-3.047
		C34.2,24.905,32.835,23.54,31.152,23.54z M31.152,28.113c-0.841,0-1.524-0.683-1.524-1.524c0-0.843,0.683-1.525,1.524-1.525
		c0.842,0,1.524,0.683,1.524,1.525C32.677,27.431,31.995,28.113,31.152,28.113z"/>
	<path fill="#231F20" d="M31.152,31.16c-1.683,0-3.047,1.365-3.047,3.048s1.364,3.047,3.047,3.047s3.048-1.364,3.048-3.047
		S32.835,31.16,31.152,31.16z M31.152,35.731c-0.841,0-1.524-0.682-1.524-1.523s0.683-1.523,1.524-1.523
		c0.842,0,1.524,0.682,1.524,1.523S31.995,35.731,31.152,35.731z"/>
	<path fill="#231F20" d="M40.296,29.636c1.684,0,3.048-1.365,3.048-3.047c0-1.685-1.364-3.049-3.048-3.049s-3.048,1.365-3.048,3.049
		C37.248,28.271,38.612,29.636,40.296,29.636z M40.296,25.064c0.842,0,1.523,0.683,1.523,1.525c0,0.841-0.682,1.524-1.523,1.524
		c-0.841,0-1.523-0.683-1.523-1.524C38.772,25.747,39.455,25.064,40.296,25.064z"/>
</g>
</svg>
